<?xml version="1.0" standalone="no"?>
<!DOCTYPE svg PUBLIC "-//W3C//DTD SVG 20010904//EN"
 "http://www.w3.org/TR/2001/REC-SVG-20010904/DTD/svg10.dtd">
<svg version="1.0" xmlns="http://www.w3.org/2000/svg"
 width="260.000000pt" height="260.000000pt" viewBox="0 0 260.000000 260.000000"
 preserveAspectRatio="xMidYMid meet">
<metadata>
Created by potrace 1.11, written by Peter Selinger 2001-2013
</metadata>
<g transform="translate(0.000000,260.000000) scale(0.100000,-0.100000)"
fill="#000000" stroke="none">
<path d="M1159 2566 c-2 -3 -27 -7 -54 -11 -121 -14 -261 -61 -394 -131 -357
-189 -600 -529 -665 -934 -13 -78 -15 -322 -3 -390 51 -290 180 -535 384 -731
321 -308 786 -426 1213 -307 390 108 719 411 854 788 122 339 105 686 -51
1010 -172 356 -531 627 -923 693 -80 13 -350 23 -361 13z m271 -70 c429 -39
824 -339 988 -751 66 -168 88 -289 86 -475 -5 -314 -128 -604 -354 -830 -297
-297 -703 -416 -1113 -325 -102 23 -181 52 -281 103 -277 142 -484 380 -595
687 -60 166 -77 447 -37 630 20 92 32 132 63 209 86 216 218 388 401 524 151
112 277 166 507 218 11 3 58 7 105 11 47 3 87 7 89 9 1 1 22 1 45 -1 22 -3 66
-7 96 -9z"/>
<path d="M1650 1925 c-164 -42 -270 -190 -258 -360 19 -251 293 -390 513 -260
168 98 212 340 90 500 -31 40 -117 99 -165 114 -54 16 -131 18 -180 6z m206
-55 c112 -55 174 -160 170 -290 -5 -162 -118 -276 -285 -288 -59 -4 -76 -1
-128 23 -33 14 -79 45 -101 68 -135 138 -108 368 56 469 84 52 202 59 288 18z"/>
<path d="M617 1913 c-3 -5 -8 -140 -11 -300 -5 -227 -3 -294 7 -300 6 -4 143
-9 303 -10 288 -3 292 -3 297 18 7 26 3 576 -4 583 -9 9 -587 18 -592 9z m563
-305 l0 -268 -268 0 -268 0 1 263 c1 144 3 265 3 268 1 4 121 6 267 6 l265 0
0 -269z"/>
<path d="M959 1078 c-18 -7 -18 -10 -6 -30 8 -13 28 -48 44 -78 17 -30 52 -95
80 -145 27 -49 66 -119 85 -155 104 -191 119 -213 134 -202 24 16 363 597 354
606 -11 11 -662 15 -691 4z m505 -270 c-80 -134 -152 -254 -161 -267 -15 -23
-18 -17 -155 230 -77 140 -142 260 -145 267 -4 9 60 12 300 12 l306 0 -145
-242z"/>
</g>
</svg>
